<svg width="38" height="37" viewBox="0 0 38 37" fill="none" xmlns="http://www.w3.org/2000/svg">
<path d="M34.8332 14.82C34.184 14.82 33.6457 14.3032 33.6457 13.68V10.64C33.6457 6.71839 31.0015 4.17999 26.9165 4.17999H11.0832C6.99817 4.17999 4.354 6.71839 4.354 10.64V13.68C4.354 14.3032 3.81567 14.82 3.1665 14.82C2.51734 14.82 1.979 14.3032 1.979 13.68V10.64C1.979 5.41119 5.6365 1.89999 11.0832 1.89999H26.9165C32.3632 1.89999 36.0207 5.41119 36.0207 10.64V13.68C36.0207 14.3032 35.4823 14.82 34.8332 14.82Z" fill="white"/>
<path d="M26.9165 34.58H11.0832C5.6365 34.58 1.979 31.0688 1.979 25.84V22.8C1.979 22.1768 2.51734 21.66 3.1665 21.66C3.81567 21.66 4.354 22.1768 4.354 22.8V25.84C4.354 29.7616 6.99817 32.3 11.0832 32.3H26.9165C31.0015 32.3 33.6457 29.7616 33.6457 25.84V22.8C33.6457 22.1768 34.184 21.66 34.8332 21.66C35.4823 21.66 36.0207 22.1768 36.0207 22.8V25.84C36.0207 31.0688 32.3632 34.58 26.9165 34.58Z" fill="white"/>
<path d="M25.9664 12.4791L20.0131 9.39354C19.3798 9.07434 18.6356 9.07434 18.0023 9.39354L12.0331 12.4791C11.6056 12.7071 11.3364 13.1479 11.3364 13.6343C11.3364 14.1359 11.6056 14.5767 12.0331 14.8047L17.9864 17.8903C18.3031 18.0575 18.6514 18.1335 18.9998 18.1335C19.3481 18.1335 19.6964 18.0575 20.0131 17.8903L25.9664 14.8047C26.3939 14.5767 26.6631 14.1359 26.6631 13.6343C26.6631 13.1479 26.3939 12.7071 25.9664 12.4791Z" fill="white"/>
<path d="M17.5048 18.7961L11.9631 16.1361C11.5356 15.9385 11.0448 15.9537 10.6331 16.1969C10.2373 16.4401 9.99976 16.8505 9.99976 17.3065V22.3377C9.99976 23.2041 10.5064 23.9945 11.3139 24.3745L16.8556 27.0345C17.0456 27.1257 17.2514 27.1713 17.4731 27.1713C17.7264 27.1713 17.9639 27.1105 18.1856 26.9737C18.5973 26.7305 18.8348 26.3201 18.8348 25.8641V20.8329C18.8189 19.9665 18.3281 19.1913 17.5048 18.7961Z" fill="white"/>
<path d="M27.8506 16.3551C27.439 16.1119 26.9481 16.0967 26.5206 16.2943L20.979 18.9543C20.1715 19.3495 19.6648 20.1247 19.6648 20.9911V26.0223C19.6648 26.4783 19.9023 26.8887 20.314 27.1319C20.5356 27.2687 20.7731 27.3295 21.0265 27.3295C21.2323 27.3295 21.4381 27.2839 21.644 27.1927L27.1856 24.5327C27.9931 24.1375 28.4998 23.3623 28.4998 22.4959V17.4647C28.4998 17.0087 28.2623 16.5983 27.8506 16.3551Z" fill="white"/>
</svg>
