<svg width="34" height="30" viewBox="0 0 34 30" fill="none" xmlns="http://www.w3.org/2000/svg">
<g clip-path="url(#clip0_125_74)">
<path d="M0.634277 30C0.634277 23.6881 6.26269 18.5714 13.2057 18.5714C20.1487 18.5714 25.7771 23.6881 25.7771 30H22.6343C22.6343 25.2661 18.4129 21.4286 13.2057 21.4286C7.99845 21.4286 3.77713 25.2661 3.77713 30H0.634277ZM13.2057 17.1429C7.99642 17.1429 3.77713 13.3071 3.77713 8.57143C3.77713 3.83571 7.99642 0 13.2057 0C18.415 0 22.6343 3.83571 22.6343 8.57143C22.6343 13.3071 18.415 17.1429 13.2057 17.1429ZM13.2057 14.2857C16.6786 14.2857 19.4914 11.7286 19.4914 8.57143C19.4914 5.41429 16.6786 2.85714 13.2057 2.85714C9.73285 2.85714 6.91999 5.41429 6.91999 8.57143C6.91999 11.7286 9.73285 14.2857 13.2057 14.2857ZM26.2229 19.5754C30.5926 21.3659 33.6343 25.36 33.6343 30H30.4914C30.4914 26.52 28.2102 23.5244 24.933 22.1816L26.2229 19.5754ZM25.1426 3.44744C28.2826 4.62433 30.4914 7.43373 30.4914 10.7143C30.4914 14.8146 27.0409 18.1789 22.6343 18.5394V15.6637C25.3005 15.3174 27.3486 13.2343 27.3486 10.7143C27.3486 8.74193 26.0939 7.03719 24.2701 6.22336L25.1426 3.44744Z" fill="white"/>
</g>
<defs>
<clipPath id="clip0_125_74">
<rect width="34" height="30" fill="white" transform="translate(-0.000244141)"/>
</clipPath>
</defs>
</svg>
