<svg width="38" height="38" viewBox="0 0 38 38" fill="none" xmlns="http://www.w3.org/2000/svg">
<path d="M19 26.5208C18.3666 26.5208 17.7333 26.4733 17.1316 26.3625C13.775 25.8717 10.7191 23.94 8.78746 21.0742C7.44163 19.0475 6.72913 16.6883 6.72913 14.25C6.72913 7.48917 12.2391 1.97917 19 1.97917C25.7608 1.97917 31.2708 7.48917 31.2708 14.25C31.2708 16.6883 30.5583 19.0475 29.2125 21.0742C27.265 23.9558 24.2091 25.8717 20.8208 26.3783C20.2666 26.4733 19.6333 26.5208 19 26.5208ZM19 4.35417C13.5375 4.35417 9.10413 8.78751 9.10413 14.25C9.10413 16.2292 9.67413 18.1292 10.7508 19.7442C12.3183 22.0558 14.7725 23.6075 17.4958 24.0033C18.5091 24.1775 19.5066 24.1775 20.4408 24.0033C23.2116 23.6075 25.6658 22.04 27.2333 19.7283C28.31 18.1133 28.88 16.2133 28.88 14.2342C28.8958 8.78749 24.4625 4.35417 19 4.35417Z" fill="white"/>
<path d="M10.2438 35.7674C10.0222 35.7674 9.81634 35.7358 9.59467 35.6883C8.5655 35.4508 7.77384 34.6591 7.53634 33.6299L6.98217 31.3024C6.9505 31.1599 6.83967 31.0491 6.68134 31.0016L4.06884 30.3841C3.08717 30.1466 2.31134 29.4183 2.04217 28.4524C1.773 27.4866 2.04217 26.4416 2.75467 25.7291L8.92967 19.5541C9.183 19.3008 9.53134 19.1741 9.87967 19.2058C10.228 19.2375 10.5447 19.4274 10.7505 19.7283C12.318 22.0399 14.7722 23.6075 17.5113 24.0033C18.5247 24.1775 19.5222 24.1775 20.4563 24.0033C23.2272 23.6075 25.6813 22.0399 27.2488 19.7283C27.4388 19.4274 27.7713 19.2375 28.1197 19.2058C28.468 19.1741 28.8163 19.3008 29.0697 19.5541L35.2447 25.7291C35.9572 26.4416 36.2263 27.4866 35.9572 28.4524C35.688 29.4183 34.8963 30.1624 33.9305 30.3841L31.318 31.0016C31.1755 31.0333 31.0647 31.1441 31.0172 31.3024L30.463 33.6299C30.2255 34.6591 29.4338 35.4508 28.4047 35.6883C27.3755 35.9416 26.3147 35.5774 25.6497 34.7699L18.9997 27.1225L12.3497 34.7858C11.8113 35.4191 11.0513 35.7674 10.2438 35.7674ZM9.64217 22.2141L4.433 27.4233C4.2905 27.5658 4.30634 27.7241 4.338 27.8191C4.35384 27.8983 4.433 28.0566 4.623 28.0883L7.2355 28.7058C8.26467 28.9433 9.05634 29.7349 9.29384 30.7641L9.848 33.0916C9.8955 33.2974 10.0538 33.3608 10.1488 33.3924C10.2438 33.4083 10.4022 33.4241 10.5447 33.2658L16.6088 26.2833C13.9172 25.7608 11.4472 24.3199 9.64217 22.2141ZM21.3905 26.2674L27.4547 33.2341C27.5972 33.4083 27.7713 33.4083 27.8663 33.3766C27.9613 33.3608 28.1038 33.2816 28.1672 33.0758L28.7213 30.7483C28.9588 29.7191 29.7505 28.9274 30.7797 28.6899L33.3922 28.0725C33.5822 28.025 33.6613 27.8824 33.6772 27.8033C33.7088 27.7241 33.7247 27.5499 33.5822 27.4074L28.373 22.1983C26.5522 24.3041 24.098 25.7449 21.3905 26.2674Z" fill="white"/>
<path d="M21.9928 20.4092C21.5811 20.4092 21.0903 20.2983 20.5044 19.95L19.0003 19.0475L17.4961 19.9342C16.1186 20.7575 15.2161 20.2825 14.8836 20.045C14.5511 19.8075 13.8386 19.095 14.2028 17.5275L14.5828 15.8967L13.3161 14.725C12.6194 14.0283 12.3661 13.1892 12.6036 12.4292C12.8411 11.6692 13.5378 11.1308 14.5194 10.9725L16.2136 10.6875L17.0211 8.91418C17.4803 8.01168 18.1928 7.50499 19.0003 7.50499C19.8078 7.50499 20.5361 8.02753 20.9794 8.93003L21.9136 10.7984L23.4811 10.9883C24.4469 11.1467 25.1436 11.685 25.3969 12.445C25.6344 13.205 25.3811 14.0442 24.6844 14.7408L23.3703 16.055L23.7819 17.5275C24.1461 19.095 23.4336 19.8075 23.1011 20.045C22.9269 20.1875 22.5469 20.4092 21.9928 20.4092ZM15.2161 13.2842L16.3086 14.3767C16.8153 14.8833 17.0686 15.7383 16.9103 16.435L16.6094 17.7017L17.8761 16.9575C18.5569 16.5617 19.4753 16.5617 20.1403 16.9575L21.4069 17.7017L21.1219 16.435C20.9636 15.7225 21.2011 14.8833 21.7078 14.3767L22.8003 13.2842L21.4228 13.0467C20.7578 12.9358 20.0928 12.445 19.7919 11.8434L19.0003 10.2917L18.2086 11.875C17.9236 12.4608 17.2586 12.9675 16.5936 13.0784L15.2161 13.2842Z" fill="white"/>
</svg>
